Coordinates
version=1
nRows=8
nColumns=40
inDegrees=yes

Units are S.I. units (second, meters, Newtons, ...)
If the header above contains a line with 'inDegrees', this indicates whether rotational values are in degrees (yes) or radians (no).

endheader
time	pelvis_tilt	pelvis_list	pelvis_rotation	pelvis_tx	pelvis_ty	pelvis_tz	hip_flexion_r	hip_adduction_r	hip_rotation_r	knee_angle_r	knee_angle_r_beta	ankle_angle_r	subtalar_angle_r	mtp_angle_r	hip_flexion_l	hip_adduction_l	hip_rotation_l	knee_angle_l	knee_angle_l_beta	ankle_angle_l	subtalar_angle_l	mtp_angle_l	lumbar_extension	lumbar_bending	lumbar_rotation	arm_flex_r	arm_add_r	arm_rot_r	elbow_flex_r	pro_sup_r	wrist_flex_r	wrist_dev_r	arm_flex_l	arm_add_l	arm_rot_l	elbow_flex_l	pro_sup_l	wrist_flex_l	wrist_dev_l
     16.25000000	      9.60431872	     -3.07654680	   -179.03763279	      0.29069599	      0.82707533	     -0.94983442	     41.16899543	    -39.53704749	    -23.99854461	     31.40316637	      0.54808865	    -16.19264344	      0.00000000	      0.00000000	     39.22149673	    -31.63438258	    -21.17894083	     32.98477026	      0.57569284	     -9.87875549	      0.00000000	      0.00000000	    -57.40486748	      1.35174256	     -0.91772505	     49.60736568	    -13.21964927	     40.66939655	      6.32152620	     42.90212583	      0.00000000	      0.00000000	     59.74789747	    -13.18142105	     56.02555411	     16.48919556	     81.45975979	      0.00000000	      0.00000000
     16.25500000	      9.54207413	     -3.10166976	   -179.07600488	      0.29055747	      0.82854546	     -0.95002669	     40.77730875	    -39.32543319	    -23.98859210	     30.81714188	      0.53786059	    -16.45507649	      0.00000000	      0.00000000	     38.77586009	    -31.47452974	    -21.35413778	     32.39213644	      0.56534943	    -10.14696113	      0.00000000	      0.00000000	    -57.25947207	      1.26632899	     -0.93376725	     49.42786032	    -13.20163411	     40.76996737	      6.27851575	     42.98936917	      0.00000000	      0.00000000	     59.61086887	    -13.30232581	     56.14311923	     16.64148218	     81.45171125	      0.00000000	      0.00000000
     16.26000000	      9.61361031	     -3.05236611	   -179.01370719	      0.29039801	      0.82939644	     -0.95006426	     40.64171750	    -39.24958934	    -24.19293588	     30.65541240	      0.53503788	    -16.50101053	      0.00000000	      0.00000000	     38.74714798	    -31.41137181	    -21.33158933	     32.14356867	      0.56101111	    -10.31814799	      0.00000000	      0.00000000	    -56.90070411	      1.31339858	     -0.95619870	     49.16964472	    -13.14459893	     40.77261324	      6.25049306	     43.01110698	      0.00000000	      0.00000000	     59.29518226	    -13.32813153	     56.18903753	     16.62237599	     81.45917484	      0.00000000	      0.00000000
     16.26500000	      9.71770664	     -2.99111628	   -178.99005625	      0.29035315	      0.83023621	     -0.95017891	     40.49704061	    -39.07748804	    -24.29720838	     30.33355854	      0.52942047	    -16.62127674	      0.00000000	      0.00000000	     38.66171388	    -31.33545456	    -21.30630679	     31.73630311	      0.55390298	    -10.50659283	      0.00000000	      0.00000000	    -56.51989171	      1.33024904	     -0.92556727	     48.92878282	    -13.12819776	     40.77878375	      6.20853899	     43.03355774	      0.00000000	      0.00000000	     59.03150000	    -13.35064066	     56.20605952	     16.65607691	     81.46060470	      0.00000000	      0.00000000
     16.27000000	      9.73330535	     -3.03453802	   -179.01840954	      0.29032759	      0.83152634	     -0.95037428	     40.18609759	    -38.86166279	    -24.20491133	     29.69351157	      0.51824954	    -16.93388396	      0.00000000	      0.00000000	     38.30889289	    -31.13033564	    -21.35950365	     31.13172641	      0.54335113	    -10.81086696	      0.00000000	      0.00000000	    -56.29644659	      1.24091112	     -0.92010611	     48.73741105	    -13.15781580	     40.77458627	      6.21615698	     43.08495353	      0.00000000	      0.00000000	     58.85168679	    -13.41136570	     56.24143287	     16.82113383	     81.44798355	      0.00000000	      0.00000000
     16.27500000	      9.78153128	     -2.99338541	   -178.97106392	      0.29010325	      0.83242638	     -0.95041852	     40.02011389	    -38.78398520	    -24.39741364	     29.50272995	      0.51491978	    -17.02323986	      0.00000000	      0.00000000	     38.23473399	    -31.07508309	    -21.39964793	     30.87708944	      0.53890687	    -10.98337111	      0.00000000	      0.00000000	    -55.96953327	      1.26915422	     -0.94135855	     48.45576181	    -13.11491618	     40.75356991	      6.20187068	     43.10712179	      0.00000000	      0.00000000	     58.58907770	    -13.44202263	     56.27053345	     16.80975334	     81.44801121	      0.00000000	      0.00000000
     16.28000000	      9.78372786	     -3.01232520	   -178.90638686	      0.29000996	      0.83325154	     -0.95043510	     39.87643596	    -38.80260116	    -24.55618099	     29.39577209	      0.51305301	    -17.04986034	      0.00000000	      0.00000000	     38.20674441	    -30.96244669	    -21.29372954	     30.79489928	      0.53747239	    -11.08151117	      0.00000000	      0.00000000	    -55.69530765	      1.25787305	     -1.02998350	     48.34622964	    -13.15701454	     40.70823472	      6.18445914	     43.10343821	      0.00000000	      0.00000000	     58.39875290	    -13.47030433	     56.29264607	     16.77805535	     81.45208579	      0.00000000	      0.00000000
     16.28500000	      9.63234351	     -3.07263730	   -179.02793181	      0.28965050	      0.83509285	     -0.95087340	     39.31872982	    -38.49188882	    -24.43327740	     28.55597709	      0.49839582	    -17.52242268	      0.00000000	      0.00000000	     37.40067148	    -30.76610340	    -21.69231948	     29.84415877	      0.52087883	    -11.52137367	      0.00000000	      0.00000000	    -55.65279007	      1.07105891	     -0.92652558	     48.05292589	    -13.11178812	     40.31122413	      6.19356803	     43.07065698	      0.00000000	      0.00000000	     58.23346587	    -13.43467041	     56.38032018	     16.88641120	     81.39514179	      0.00000000	      0.00000000
